Simone Signoret plays the title role in this dark melodrama from writer/director Pierre Granier-Deferre. The Widow Couderc is based on a novel by Georges Simenon. Here Signoret  (who also starred in Le Chat, an earlier Granier-Deferre adaptation of a Simenon  novel) plays a bitterly independent middle-aged widow; she is a farmer who takes in a handsome young drifter, Jean (Alain Delon), who turns out to be recently released from prison. Jean does odd jobs for the woman, who lives with her elderly father-in-law, Henri (Jean Tissier), who pretends to be deaf when it suits him, and surreptitiously has an intimate relationship with Couderc. It's Henri's house, and when Jean moves in, it gives the widow's resentful sister-in-law, Françoise (Monique Chaumette), the excuse she's looking for to get Henri to leave the house so she can sell it. The widow and Jean have a modest dream of using an incubator to raise chicks and make a decent living, but their plans are further complicated when Françoise's promiscuous teenaged daughter, Félicie (Ottavia Piccolo, who would go on to star opposite Delon again in 1974's Zorro) comes around with her infant son. Félicie clearly has eyes for Jean, and to the consternation of the widow, who holds his fate in her hands, Jean has trouble resisting the younger woman's charms. 

   General
      Complete name : La Veuve Couderc.avi
      Format : AVI
      Format/Info : Audio Video Interleave
      File size : 899 MiB
      Duration : 1h 29mn
      Overall bit rate : 1 409 Kbps
      Writing application : VirtualDubMod 1.5.4.1 (build 2178/release)
      Writing library : VirtualDubMod build 2178/release
   Video #0
      ID : 0
      Format : MPEG-4 Visual
      Format profile : AdvancedSimple@L5
      Format settings, BVOP : Yes
      Format settings, QPel : No
      Format settings, GMC : No warppoints
      Format settings, Matrix : Custom
      Codec ID : XVID
      Codec ID/Hint : XviD
      Duration : 1h 29mn
      Bit rate : 1 293 Kbps
      Width : 576 pixels
      Height : 336 pixels
      Display aspect ratio : 16:9
      Frame rate : 23.976 fps
      Resolution : 24 bits
      Colorimetry : 4:2:0
      Scan type : Progressive
      Bits/(Pixel*Frame) : 0.279
      Stream size : 825 MiB (92%)
      Writing library : XviD 1.2.0.dev47 (UTC 2006-11-01)
   Audio #1
      ID : 1
      Format : MPEG Audio
      Format version : Version 1
      Format profile : Layer 3
      Codec ID : 55
      Codec ID/Hint : MP3
      Duration : 1h 29mn
      Bit rate mode : Variable
      Bit rate : 104 Kbps
      Nominal bit rate : 128 Kbps
      Channel(s) : 2 channels
      Sampling rate : 48.0 KHz
      Resolution : 16 bits
      Stream size : 66.4 MiB (7%)
      Alignment : Aligned on interleaves
      Interleave, duration : 24 ms (0.58 video frame)
      Interleave, preload duration : 557 ms
      Writing library : LAME3.97 
      Encoding settings : -m j -V 4 -q 2 -lowpass 17 --abr 128
 
http://www.imdb.com/title/tt0067943/

French audio; English, Spanish and Portuguese subtitles

Pierre Granier-Deferre - La veuve Couderc (1971) 